<svg xmlns="http://www.w3.org/2000/svg" width="1200" height="750" viewBox="0 0 1200 750">
  <defs>
    <linearGradient id="hero" x1="0" y1="0" x2="0" y2="1">
      <stop offset="0%" stop-color="#f5efe6"/>
      <stop offset="100%" stop-color="#FAF7F2"/>
    </linearGradient>
    <linearGradient id="gold" x1="0" y1="0" x2="1" y2="0">
      <stop offset="0%" stop-color="#B8956C"/>
      <stop offset="100%" stop-color="#d4b896"/>
    </linearGradient>
  </defs>
  <rect width="1200" height="750" fill="#FAF7F2"/>
  <rect x="0" y="0" width="1200" height="72" fill="#FFFFFF"/>
  <line x1="0" y1="72" x2="1200" y2="72" stroke="rgba(28,25,23,0.06)"/>
  <rect x="64" y="26" width="128" height="20" rx="2" fill="url(#gold)"/>
  <rect x="880" y="30" width="88" height="12" rx="6" fill="#F3EEE6"/>
  <rect x="988" y="30" width="88" height="12" rx="6" fill="#F3EEE6"/>
  <rect x="1048" y="22" width="96" height="28" rx="14" fill="#B8956C"/>
  <rect x="0" y="72" width="1200" height="340" fill="url(#hero)"/>
  <ellipse cx="600" cy="200" rx="420" ry="120" fill="#B8956C" opacity="0.08"/>
  <text x="600" y="230" text-anchor="middle" fill="#1C1917" font-family="Georgia,serif" font-size="56">Maison et saveurs</text>
  <text x="600" y="288" text-anchor="middle" fill="#57534E" font-family="system-ui,sans-serif" font-size="21">Cuisine de saison, cadre d exception</text>
  <rect x="462" y="320" width="276" height="50" rx="25" fill="#B8956C"/>
  <rect x="100" y="448" width="1000" height="1" fill="rgba(28,25,23,0.08)"/>
  <rect x="140" y="492" width="300" height="180" rx="10" fill="#FFFFFF" stroke="rgba(28,25,23,0.06)"/>
  <rect x="450" y="492" width="300" height="180" rx="10" fill="#FFFFFF" stroke="rgba(28,25,23,0.06)"/>
  <rect x="760" y="492" width="300" height="180" rx="10" fill="#FFFFFF" stroke="rgba(28,25,23,0.06)"/>
  <rect x="172" y="524" width="180" height="10" rx="5" fill="#B8956C" opacity="0.7"/>
  <rect x="172" y="552" width="236" height="8" rx="4" fill="#F3EEE6"/>
  <rect x="172" y="572" width="200" height="8" rx="4" fill="#F3EEE6"/>
  <rect x="172" y="608" width="88" height="28" rx="14" fill="#B8956C" opacity="0.9"/>
  <text x="600" y="718" text-anchor="middle" fill="#8B7355" font-family="system-ui,sans-serif" font-size="17" letter-spacing="0.16em">PREMIUM ELEGANT</text>
</svg>
